#N canvas 292 128 603 411 10;
#X text 51 44 f = 440 * 2^((m-69)/12);
#X floatatom 50 88 5 0 0 0 - - -;
#X obj 50 119 - 69;
#X obj 50 147 / 12;
#X obj 50 180 t b f;
#X msg 50 215 2;
#X obj 62 250 pow;
#X obj 62 284 * 440;
#X floatatom 62 326 5 0 0 0 - - -;
#X floatatom 151 87 5 0 0 0 - - -;
#X obj 151 120 mtof;
#X floatatom 151 154 5 0 0 0 - - -;
#X obj 226 121 expr 440*(pow (2 \, (($f1-69)/12)));
#X floatatom 226 85 5 0 0 0 - - -;
#X floatatom 227 153 5 0 0 0 - - -;
#X text 509 6 Wollen wir einfach die Frequenz eines temperierten Tons
wissen \, der in einem bestimmten Abstand zu einer bekannten Frequenz
steht \, benötigen wir diese Formel: f = g.2^(a/12) f = frequenz
\, g = bezugton \, a = der abstand in halbtonen;
#X text 10 14 Umrechnung MIDI zu frequenz;
#X floatatom 509 128 5 0 0 0 - - -;
#X obj 509 158 / 12;
#X obj 509 203 t b f;
#X msg 508 240 2;
#X obj 523 273 pow;
#X obj 523 309 * 440;
#X floatatom 523 352 5 0 0 0 - - -;
#X floatatom 591 265 5 0 0 0 - - -;
#X obj 683 166 expr $f2*(pow (2 \, ($f1/12)));
#X floatatom 876 128 5 0 0 0 - - -;
#X floatatom 683 126 5 0 0 0 - - -;
#X floatatom 683 215 5 0 0 0 - - -;
#X obj 197 253 expr 8.1758 * exp(.0577622650 * $f1);
#X floatatom 203 299 5 0 0 0 - - -;
#X msg 192 214 79;
#X connect 1 0 2 0;
#X connect 2 0 3 0;
#X connect 3 0 4 0;
#X connect 4 0 5 0;
#X connect 4 1 6 1;
#X connect 5 0 6 0;
#X connect 6 0 7 0;
#X connect 7 0 8 0;
#X connect 9 0 10 0;
#X connect 10 0 11 0;
#X connect 12 0 14 0;
#X connect 13 0 12 0;
#X connect 17 0 18 0;
#X connect 18 0 19 0;
#X connect 19 0 20 0;
#X connect 19 1 21 1;
#X connect 20 0 21 0;
#X connect 21 0 22 0;
#X connect 22 0 23 0;
#X connect 24 0 22 1;
#X connect 25 0 28 0;
#X connect 26 0 25 1;
#X connect 27 0 25 0;
#X connect 29 0 30 0;
#X connect 31 0 29 0;
