#N canvas 1236 259 450 300 10;
#X obj 57 84 line;
#X floatatom 55 119 5 0 0 0 - - -;
#X obj 56 160 phasor~;
#X obj 54 238 dac~;
#X obj 55 197 *~ 0.1;
#X msg 57 46 1 \, 50 30000;
#X obj 190 94 osc~;
#X obj 192 141 *~ 0.1;
#X msg 186 44 100;
#X msg 220 44 200;
#X msg 254 44 300;
#X msg 286 44 400;
#X msg 320 44 500;
#X msg 352 44 600;
#X msg 385 44 700;
#X msg 416 44 800;
#X msg 185 8 500;
#X msg 217 8 600;
#X msg 250 8 700;
#X msg 281 8 800;
#X connect 0 0 1 0;
#X connect 1 0 2 0;
#X connect 2 0 4 0;
#X connect 5 0 0 0;
#X connect 6 0 7 0;
#X connect 7 0 3 0;
#X connect 7 0 3 1;
#X connect 8 0 6 0;
#X connect 9 0 6 0;
#X connect 10 0 6 0;
#X connect 11 0 6 0;
#X connect 12 0 6 0;
#X connect 13 0 6 0;
#X connect 14 0 6 0;
#X connect 15 0 6 0;
#X connect 16 0 6 0;
#X connect 17 0 6 0;
#X connect 18 0 6 0;
#X connect 19 0 6 0;
