#N canvas 991 605 450 300 10;
#X obj 139 156 testfilter~;
#X msg 120 30 320;
#X obj 142 241 dac~;
#X obj 141 207 *~ 0.1;
#X floatatom 232 91 5 0 0 0 - - -;
#X obj 128 90 noise~;
#X connect 0 0 3 0;
#X connect 1 0 5 0;
#X connect 3 0 2 0;
#X connect 3 0 2 1;
#X connect 4 0 0 1;
#X connect 5 0 0 0;
