#N canvas 779 132 545 605 12;
#X floatatom 67 230 5 0 0 0 - - -;
#X obj 66 295 rfft~;
#X obj 65 336 *~;
#X obj 101 337 *~;
#X obj 64 377 +~;
#X obj 64 414 sqrt~;
#X text 145 334 Umrechnung;
#X obj 67 254 phasor~;
#X obj 64 473 tabwrite~ magnitude;
#X obj 115 446 metro 250;
#X obj 115 425 tgl 15 0 empty empty empty 0 -6 0 8 -262144 -1 -1 1
1;
#N canvas 0 0 450 300 (subpatch) 0;
#X array magnitude 100 float 0;
#X coords 0 50 32 0 200 140 1 0 0;
#X restore 275 225 graph;
#X text 73 25 3.8.1.1. rfft array;
#X text 346 535 Johannes Kreidler;
#X text 337 561 www.pd-tutorial.com;
#X connect 0 0 7 0;
#X connect 1 0 2 0;
#X connect 1 0 2 1;
#X connect 1 1 3 0;
#X connect 1 1 3 1;
#X connect 2 0 4 0;
#X connect 3 0 4 1;
#X connect 4 0 5 0;
#X connect 5 0 8 0;
#X connect 7 0 1 0;
#X connect 9 0 8 0;
#X connect 10 0 9 0;
